HIERARCHY
ROOT Hips
{
  OFFSET 5.80788e-005 67.184 3.4734
  CHANNELS 6 Xposition Yposition Zposition Zrotation Xrotation Yrotation
  JOINT Chest
  {
    OFFSET 0 8.7983 -4.7612
    CHANNELS 6 Xposition Yposition Zposition Zrotation Xrotation Yrotation
    JOINT Chest2
    {
      OFFSET 0 8.0291 0.4195
      CHANNELS 6 Xposition Yposition Zposition Zrotation Xrotation Yrotation
      JOINT Chest3
      {
        OFFSET 0 9.9351 -2.2114
        CHANNELS 6 Xposition Yposition Zposition Zrotation Xrotation Yrotation
        JOINT Neck
        {
          OFFSET 0 22.3885 -0.4656
          CHANNELS 6 Xposition Yposition Zposition Zrotation Xrotation Yrotation
          JOINT Head
          {
            OFFSET -0.0001 12.643 3.4389
            CHANNELS 6 Xposition Yposition Zposition Zrotation Xrotation Yrotation
            End Site
            {
              OFFSET 0.0001 17.6655 0.5274
            }
          }
        }
        JOINT LeftCollar
        {
          OFFSET 2.2603 21.606 7.4023
          CHANNELS 6 Xposition Yposition Zposition Zrotation Xrotation Yrotation
          JOINT LeftShoulder
          {
            OFFSET 13.5163 -1.1332 -5.0146
            CHANNELS 6 Xposition Yposition Zposition Zrotation Xrotation Yrotation
            JOINT LeftElbow
            {
              OFFSET -0.0995 -28.05 -0.2431
              CHANNELS 6 Xposition Yposition Zposition Zrotation Xrotation Yrotation
              JOINT LeftWrist
              {
                OFFSET 0.0679 -23.3996 -0.1402
                CHANNELS 6 Xposition Yposition Zposition Zrotation Xrotation Yrotation
                JOINT LeftFinger1
                {
                  OFFSET 0.7932 -9.069 2.5189
                  CHANNELS 6 Xposition Yposition Zposition Zrotation Xrotation Yrotation
                  JOINT LeftFinger11
                  {
                    OFFSET -0.8272 -3.3923 0.5977
                    CHANNELS 6 Xposition Yposition Zposition Zrotation Xrotation Yrotation
                    JOINT LeftFinger12
                    {
                      OFFSET -0.5649 -2.3158 0.4082
                      CHANNELS 6 Xposition Yposition Zposition Zrotation Xrotation Yrotation
                      End Site
                      {
                        OFFSET -0.4919 -1.6479 0.2673
                      }
                    }
                  }
                }
                JOINT LeftFinger2
                {
                  OFFSET 0.9159 -9.2044 0.2193
                  CHANNELS 6 Xposition Yposition Zposition Zrotation Xrotation Yrotation
                  JOINT LeftFinger21
                  {
                    OFFSET 0.0117 -4.1944 -0.0248
                    CHANNELS 6 Xposition Yposition Zposition Zrotation Xrotation Yrotation
                    JOINT LeftFinger22
                    {
                      OFFSET 0.0071 -2.3249 -0.0142
                      CHANNELS 6 Xposition Yposition Zposition Zrotation Xrotation Yrotation
                      End Site
                      {
                        OFFSET -0.1475 -2.0882 0.0028
                      }
                    }
                  }
                }
                JOINT LeftFinger3
                {
                  OFFSET 0.6113 -8.7231 -2.0637
                  CHANNELS 6 Xposition Yposition Zposition Zrotation Xrotation Yrotation
                  JOINT LeftFinger31
                  {
                    OFFSET -0.1927 -3.8059 -0.2383
                    CHANNELS 6 Xposition Yposition Zposition Zrotation Xrotation Yrotation
                    JOINT LeftFinger32
                    {
                      OFFSET -0.1091 -2.1688 -0.1362
                      CHANNELS 6 Xposition Yposition Zposition Zrotation Xrotation Yrotation
                      End Site
                      {
                        OFFSET -0.2358 -1.9176 -0.0906
                      }
                    }
                  }
                }
                JOINT LeftFinger4
                {
                  OFFSET -0.6151 -8.0947 -3.5641
                  CHANNELS 6 Xposition Yposition Zposition Zrotation Xrotation Yrotation
                  JOINT LeftFinger41
                  {
                    OFFSET -0.4882 -2.341 -0.6462
                    CHANNELS 6 Xposition Yposition Zposition Zrotation Xrotation Yrotation
                    JOINT LeftFinger42
                    {
                      OFFSET -0.3575 -1.7167 -0.4742
                      CHANNELS 6 Xposition Yposition Zposition Zrotation Xrotation Yrotation
                      End Site
                      {
                        OFFSET -0.4187 -1.5237 -0.3496
                      }
                    }
                  }
                }
                JOINT LeftFinger0
                {
                  OFFSET -1.42 -1.8761 1.4223
                  CHANNELS 6 Xposition Yposition Zposition Zrotation Xrotation Yrotation
                  JOINT LeftFinger01
                  {
                    OFFSET -1.1471 -3.4929 2.6334
                    CHANNELS 6 Xposition Yposition Zposition Zrotation Xrotation Yrotation
                    JOINT LeftFinger02
                    {
                      OFFSET -0.823 -2.3 1.6571
                      CHANNELS 6 Xposition Yposition Zposition Zrotation Xrotation Yrotation
                      End Site
                      {
                        OFFSET -0.5822 -1.6914 1.1582
                      }
                    }
                  }
                }
              }
            }
          }
        }
        JOINT RightCollar
        {
          OFFSET -2.2603 21.606 7.4023
          CHANNELS 6 Xposition Yposition Zposition Zrotation Xrotation Yrotation
          JOINT RightShoulder
          {
            OFFSET -13.5187 -1.1334 -5.0155
            CHANNELS 6 Xposition Yposition Zposition Zrotation Xrotation Yrotation
            JOINT RightElbow
            {
              OFFSET 0.0994 -28.0499 -0.2431
              CHANNELS 6 Xposition Yposition Zposition Zrotation Xrotation Yrotation
              JOINT RightWrist
              {
                OFFSET -0.0679 -23.3996 -0.1402
                CHANNELS 6 Xposition Yposition Zposition Zrotation Xrotation Yrotation
                JOINT RightFinger1
                {
                  OFFSET -0.7932 -9.0691 2.5189
                  CHANNELS 6 Xposition Yposition Zposition Zrotation Xrotation Yrotation
                  JOINT RightFinger11
                  {
                    OFFSET 0.8272 -3.3923 0.5977
                    CHANNELS 6 Xposition Yposition Zposition Zrotation Xrotation Yrotation
                    JOINT RightFinger12
                    {
                      OFFSET 0.565 -2.3158 0.4082
                      CHANNELS 6 Xposition Yposition Zposition Zrotation Xrotation Yrotation
                      End Site
                      {
                        OFFSET 0.4919 -1.6479 0.2673
                      }
                    }
                  }
                }
                JOINT RightFinger2
                {
                  OFFSET -0.916 -9.2044 0.2193
                  CHANNELS 6 Xposition Yposition Zposition Zrotation Xrotation Yrotation
                  JOINT RightFinger21
                  {
                    OFFSET -0.0117 -4.1944 -0.0248
                    CHANNELS 6 Xposition Yposition Zposition Zrotation Xrotation Yrotation
                    JOINT RightFinger22
                    {
                      OFFSET -0.0071 -2.3249 -0.0142
                      CHANNELS 6 Xposition Yposition Zposition Zrotation Xrotation Yrotation
                      End Site
                      {
                        OFFSET 0.1475 -2.0882 0.0028
                      }
                    }
                  }
                }
                JOINT RightFinger3
                {
                  OFFSET -0.6113 -8.7231 -2.0637
                  CHANNELS 6 Xposition Yposition Zposition Zrotation Xrotation Yrotation
                  JOINT RightFinger31
                  {
                    OFFSET 0.1927 -3.8059 -0.2383
                    CHANNELS 6 Xposition Yposition Zposition Zrotation Xrotation Yrotation
                    JOINT RightFinger32
                    {
                      OFFSET 0.1091 -2.1688 -0.1362
                      CHANNELS 6 Xposition Yposition Zposition Zrotation Xrotation Yrotation
                      End Site
                      {
                        OFFSET 0.2358 -1.9176 -0.0906
                      }
                    }
                  }
                }
                JOINT RightFinger4
                {
                  OFFSET 0.6151 -8.0947 -3.564
                  CHANNELS 6 Xposition Yposition Zposition Zrotation Xrotation Yrotation
                  JOINT RightFinger41
                  {
                    OFFSET 0.4882 -2.341 -0.6462
                    CHANNELS 6 Xposition Yposition Zposition Zrotation Xrotation Yrotation
                    JOINT RightFinger42
                    {
                      OFFSET 0.3574 -1.7166 -0.4742
                      CHANNELS 6 Xposition Yposition Zposition Zrotation Xrotation Yrotation
                      End Site
                      {
                        OFFSET 0.4187 -1.5237 -0.3496
                      }
                    }
                  }
                }
                JOINT RightFinger0
                {
                  OFFSET 1.4199 -1.8761 1.4221
                  CHANNELS 6 Xposition Yposition Zposition Zrotation Xrotation Yrotation
                  JOINT RightFinger01
                  {
                    OFFSET 1.1472 -3.4929 2.6336
                    CHANNELS 6 Xposition Yposition Zposition Zrotation Xrotation Yrotation
                    JOINT RightFinger02
                    {
                      OFFSET 0.8229 -2.3 1.6571
                      CHANNELS 6 Xposition Yposition Zposition Zrotation Xrotation Yrotation
                      End Site
                      {
                        OFFSET 0.5822 -1.6914 1.1582
                      }
                    }
                  }
                }
              }
            }
          }
        }
      }
    }
  }
  JOINT RightHip
  {
    OFFSET -9.412 3.9771 -0.7758
    CHANNELS 6 Xposition Yposition Zposition Zrotation Xrotation Yrotation
    JOINT RightKnee
    {
      OFFSET -0.7531 -40.938 0
      CHANNELS 6 Xposition Yposition Zposition Zrotation Xrotation Yrotation
      JOINT RightAnkle
      {
        OFFSET 0 -40.1986 0
        CHANNELS 6 Xposition Yposition Zposition Zrotation Xrotation Yrotation
        JOINT RightToe
        {
          OFFSET 0 -4.4182 9.239
          CHANNELS 6 Xposition Yposition Zposition Zrotation Xrotation Yrotation
          End Site
          {
            OFFSET 0 0 6.1981
          }
        }
      }
    }
  }
  JOINT LeftHip
  {
    OFFSET 9.4119 3.9773 -0.7758
    CHANNELS 6 Xposition Yposition Zposition Zrotation Xrotation Yrotation
    JOINT LeftKnee
    {
      OFFSET 0.7532 -40.9383 0
      CHANNELS 6 Xposition Yposition Zposition Zrotation Xrotation Yrotation
      JOINT LeftAnkle
      {
        OFFSET 0 -40.1986 0
        CHANNELS 6 Xposition Yposition Zposition Zrotation Xrotation Yrotation
        JOINT LeftToe
        {
          OFFSET 0 -4.4182 9.239
          CHANNELS 6 Xposition Yposition Zposition Zrotation Xrotation Yrotation
          End Site
          {
            OFFSET 0 0 6.1981
          }
        }
      }
    }
  }
}
MOTION
Frames:	4
Frame Time:	0.0333333
5.80788e-005 67.184 3.4734 0 0 -0 0 8.7983 -4.7612 0 0 -0 0 8.0291 0.4195 0 0 -0 0 9.9351 -2.2114 0 0 -0 0 22.3885 -0.4656 0 0 -0 -0.0001 12.643 3.4389 0 0 -0 2.2603 21.606 7.4023 0 0 -12.5014 13.5163 -1.1332 -5.0146 88.1196 14.2451 10.6914 -0.0995 -28.05 -0.2431 -0.00160068 -0.00239207 0.000740045 0.0679 -23.3996 -0.1402 -8.4365e-005 7.00714e-005 -9.52055e-007 0.7932 -9.069 2.5189 9.93923e-017 -1.98785e-016 -1.59028e-015 -0.8272 -3.3923 0.5977 9.93923e-017 -5.96354e-016 -1.59028e-015 -0.5649 -2.3158 0.4082 -9.93923e-017 -5.96354e-016 -1.59028e-015 0.9159 -9.2044 0.2193 9.93923e-017 -1.98785e-016 -1.59028e-015 0.0117 -4.1944 -0.0248 -0.0128176 0.00232552 8.52707e-005 0.0071 -2.3249 -0.0142 9.93923e-017 5.96354e-016 -0 0.6113 -8.7231 -2.0637 9.93923e-017 -1.98785e-016 -1.59028e-015 -0.1927 -3.8059 -0.2383 -0.0160551 0.00299681 0.000857156 -0.1091 -2.1688 -0.1362 -2.48481e-016 0 3.18055e-015 -0.6151 -8.0947 -3.5641 9.93923e-017 -1.98785e-016 -1.59028e-015 -0.4882 -2.341 -0.6462 -0.0125865 0.0031206 0.00282719 -0.3575 -1.7167 -0.4742 0 1.98785e-016 -0 -1.42 -1.8761 1.4223 9.93923e-017 -1.98785e-016 -1.59028e-015 -1.1471 -3.4929 2.6334 9.93923e-017 -5.96354e-016 -1.59028e-015 -0.823 -2.3 1.6571 -9.93923e-017 -5.96354e-016 -1.59028e-015 -2.2603 21.606 7.4023 -0.865644 0.16582 7.03859 -13.5187 -1.1334 -5.0155 -88.0329 10.2057 -10.5567 0.0994 -28.0499 -0.2431 0.0015593 -0.00248883 -0.000788628 -0.0679 -23.3996 -0.1402 7.87605e-005 4.10553e-005 1.24965e-005 -0.7932 -9.0691 2.5189 -3.97569e-016 -7.95139e-016 3.18055e-015 0.8272 -3.3923 0.5977 -1.98785e-016 -3.97569e-016 3.18055e-015 0.565 -2.3158 0.4082 -1.98785e-016 0 3.18055e-015 -0.916 -9.2044 0.2193 -3.97569e-016 -7.95139e-016 3.18055e-015 -0.0117 -4.1944 -0.0248 0.0129473 0.00231697 -8.70038e-005 -0.0071 -2.3249 -0.0142 9.93923e-017 -7.95139e-016 1.59028e-015 -0.6113 -8.7231 -2.0637 -3.97569e-016 -7.95139e-016 3.18055e-015 0.1927 -3.8059 -0.2383 0.0163314 0.00303369 -0.000872333 0.1091 -2.1688 -0.1362 3.97569e-016 7.95139e-016 -3.18055e-015 0.6151 -8.0947 -3.564 -3.97569e-016 -7.95139e-016 3.18055e-015 0.4882 -2.341 -0.6462 0.0145763 0.00367772 -0.00326275 0.3574 -1.7166 -0.4742 9.93923e-017 -3.97569e-016 -0 1.4199 -1.8761 1.4221 -3.97569e-016 -7.95139e-016 3.18055e-015 1.1472 -3.4929 2.6336 -1.98785e-016 -3.97569e-016 3.18055e-015 0.8229 -2.3 1.6571 -1.98785e-016 0 3.18055e-015 -9.412 3.9771 -0.7758 3.42485 1.36937 -0.0640303 -0.7531 -40.938 0 0.000136572 0.69354 0.00145564 1.77636e-015 -40.1986 -1.11022e-016 -3.42573 -2.06297 -0.0607933 8.88178e-016 -4.4182 9.239 -3.19502e-024 0 -1.48106e-024 9.4119 3.9773 -0.7758 -3.42498 1.36123 0.0639712 0.7532 -40.9383 2.22045e-016 -6.769e-005 0.712612 -0.0012277 8.88179e-016 -40.1986 0 3.42582 -2.07388 0.0612819 -8.88178e-016 -4.4182 9.239 2.55305e-023 0 -2.31416e-026 
-3.08735 22.3306 50.7279 -43.5783 -33.0364 119.809 0 8.7983 -4.7612 0.020291 -0.371829 0.0311055 0 8.0291 0.4195 0.0407769 -0.743648 0.0623527 0 9.9351 -2.2114 0.0407783 -0.743646 0.062338 0 22.3885 -0.4656 2.32027e-005 -11.1754 2.65297e-005 -0.0001 12.643 3.4389 -0.0426439 -16.7255 -0.0176091 2.2603 21.606 7.4023 20.81 11.7 -24.0557 13.5163 -1.1332 -5.0146 100.136 1.50611 87.5157 -0.0995 -28.05 -0.2431 -23.1134 -61.3764 7.92071 0.0679 -23.3996 -0.1402 -9.97664 -18.1342 -10.2498 0.7932 -9.069 2.5189 -1.20809e-006 -2.7796e-006 -1.11595e-007 -0.8272 -3.3923 0.5977 -2.46601e-006 7.14984e-006 4.37201e-006 -0.5649 -2.3158 0.4082 1.32698e-005 -7.00573e-006 1.49158e-006 0.9159 -9.2044 0.2193 -1.20809e-006 -2.7796e-006 -1.11595e-007 0.0117 -4.1944 -0.0248 -0.0128008 0.00232265 9.21197e-005 0.0071 -2.3249 -0.0142 6.81847e-006 -3.30451e-006 2.2964e-006 0.6113 -8.7231 -2.0637 -1.20809e-006 -2.7796e-006 -1.11595e-007 -0.1927 -3.8059 -0.2383 -0.0160511 0.00299595 0.000864667 -0.1091 -2.1688 -0.1362 -1.59028e-015 -1.59028e-015 -0 -0.6151 -8.0947 -3.5641 -1.20809e-006 -2.7796e-006 -1.11595e-007 -0.4882 -2.341 -0.6462 -0.0126481 0.0031449 0.00284413 -0.3575 -1.7167 -0.4742 -1.15689e-006 -2.18104e-006 -4.70711e-006 -1.42 -1.8761 1.4223 -1.20809e-006 -2.7796e-006 -1.11595e-007 -1.1471 -3.4929 2.6334 -2.46601e-006 7.14984e-006 4.37201e-006 -0.823 -2.3 1.6571 1.32698e-005 -7.00573e-006 1.49158e-006 -2.2603 21.606 7.4023 -21.7263 11.6921 18.7596 -13.5187 -1.1334 -5.0155 -98.16 -2.75456 -88.5711 0.0994 -28.0499 -0.2431 22.9176 -61.1532 -8.7554 -0.0679 -23.3996 -0.1402 9.73448 -18.3128 10.0617 -0.7932 -9.0691 2.5189 3.18055e-015 4.77083e-015 -3.18055e-015 0.8272 -3.3923 0.5977 3.18055e-015 4.77083e-015 -2.38542e-015 0.565 -2.3158 0.4082 6.36111e-015 7.95139e-015 -0 -0.916 -9.2044 0.2193 3.18055e-015 4.77083e-015 -3.18055e-015 -0.0117 -4.1944 -0.0248 0.0129933 0.00232269 -9.05071e-005 -0.0071 -2.3249 -0.0142 -2.8244e-006 5.83687e-006 -5.18835e-006 -0.6113 -8.7231 -2.0637 3.18055e-015 4.77083e-015 -3.18055e-015 0.1927 -3.8059 -0.2383 0.0163152 0.00303835 -0.000868531 0.1091 -2.1688 -0.1362 -6.36111e-015 0 2.38542e-015 0.6151 -8.0947 -3.564 3.18055e-015 4.77083e-015 -3.18055e-015 0.4882 -2.341 -0.6462 0.0144895 0.00365433 -0.00323526 0.3574 -1.7166 -0.4742 -2.0056e-006 5.50293e-006 -3.55514e-006 1.4199 -1.8761 1.4221 3.18055e-015 4.77083e-015 -3.18055e-015 1.1472 -3.4929 2.6336 3.18055e-015 4.77083e-015 -2.38542e-015 0.8229 -2.3 1.6571 6.36111e-015 7.95139e-015 -0 -9.412 3.9771 -0.7758 -65.7668 -38.6829 -61.4471 -0.7531 -40.938 0 173.181 77.3418 -176.609 0 -40.1986 -7.10543e-015 -6.23362 7.00932 -1.7808 0 -4.4182 9.239 -1.28331e-007 -1.68545e-006 2.29058e-006 9.4119 3.9773 -0.7758 65.751 -38.7065 61.4289 0.7532 -40.9383 0 -173.057 77.3414 176.497 1.77636e-015 -40.1986 8.88179e-016 6.22 7.01383 1.79174 -3.55271e-015 -4.4182 9.239 -1.49417e-006 -2.267e-006 -6.79925e-006 
1.60013 4.20134 76.0239 43.3493 -70.9566 -135.039 0 8.7983 -4.7612 0.0412896 -0.61554 0.0459232 1.77636e-015 8.0291 0.4195 0.0830677 -1.23111 0.0922997 -1.77636e-015 9.9351 -2.2114 0.0830659 -1.23111 0.0923026 1.77636e-015 22.3885 -0.4656 -5.00791e-006 -15.9193 -4.35139e-006 -0.0001 12.643 3.4389 -0.0649496 -23.384 -0.025627 2.2603 21.606 7.4023 31.8927 16.8966 -30.1019 13.5163 -1.1332 -5.0146 106.479 -3.90332 122.157 -0.0995 -28.05 -0.2431 -101.197 -76.9453 -57.1569 0.0679 -23.3996 -0.1402 -14.9625 -26.3374 -15.4823 0.793199 -9.069 2.5189 -3.18055e-015 -6.36111e-015 -1.59028e-015 -0.827199 -3.3923 0.5977 1.51053e-006 -5.12245e-006 -2.89995e-006 -0.5649 -2.3158 0.4082 -3.67423e-006 2.51715e-006 1.11178e-006 0.915899 -9.2044 0.2193 -3.18055e-015 -6.36111e-015 -1.59028e-015 0.0117 -4.1944 -0.0248 -0.0128143 0.00232359 8.30101e-005 0.00709999 -2.3249 -0.0142 3.18055e-015 0 -0 0.6113 -8.7231 -2.0637 -3.18055e-015 -6.36111e-015 -1.59028e-015 -0.1927 -3.8059 -0.2383 -0.0160535 0.002994 0.000854406 -0.1091 -2.1688 -0.1362 -1.59028e-015 -6.36111e-015 -6.36111e-015 -0.6151 -8.0947 -3.5641 -3.18055e-015 -6.36111e-015 -1.59028e-015 -0.4882 -2.341 -0.6462 -0.0126071 0.00312584 0.00283 -0.3575 -1.7167 -0.4742 1.01736e-005 -5.20184e-006 1.14872e-006 -1.42 -1.8761 1.4223 -3.18055e-015 -6.36111e-015 -1.59028e-015 -1.1471 -3.4929 2.6334 1.51053e-006 -5.12245e-006 -2.89995e-006 -0.822999 -2.3 1.6571 -3.67423e-006 2.51715e-006 1.11178e-006 -2.2603 21.606 7.4023 -32.8241 16.7992 24.8792 -13.5187 -1.1334 -5.0155 -104.244 -8.93982 -123.627 0.0994 -28.0499 -0.2431 100.317 -76.9428 55.7135 -0.0679 -23.3996 -0.1402 14.6105 -26.6088 15.1662 -0.7932 -9.0691 2.5189 4.77083e-015 2.37711e-006 3.18055e-015 0.8272 -3.3923 0.5977 7.95139e-016 2.37711e-006 -6.36111e-015 0.565 -2.3158 0.4082 7.95139e-015 -7.95139e-016 6.36111e-015 -0.916 -9.2044 0.2193 4.77083e-015 2.37711e-006 3.18055e-015 -0.0117 -4.1944 -0.0248 0.0129586 0.0023172 -8.76989e-005 -0.0071 -2.3249 -0.0142 -5.661e-006 -6.3424e-006 4.75371e-006 -0.6113 -8.7231 -2.0637 4.77083e-015 2.37711e-006 3.18055e-015 0.1927 -3.8059 -0.2383 0.0163425 0.00303214 -0.000869242 0.1091 -2.1688 -0.1362 5.16952e-006 3.7547e-006 -2.06226e-006 0.6151 -8.0947 -3.564 4.77083e-015 2.37711e-006 3.18055e-015 0.4882 -2.341 -0.6462 0.01463 0.00369319 -0.0032682 0.3574 -1.7166 -0.4742 9.54166e-015 -6.36111e-015 -0 1.4199 -1.8761 1.4221 4.77083e-015 2.37711e-006 3.18055e-015 1.1472 -3.4929 2.6336 7.95139e-016 2.37711e-006 -6.36111e-015 0.8229 -2.3 1.6571 7.95139e-015 -7.95139e-016 6.36111e-015 -9.412 3.9771 -0.7758 -109.407 -29.2696 -92.5747 -0.7531 -40.938 0 177.219 33.7206 176.398 8.88178e-016 -40.1986 0 -6.47379 10.7261 -4.34756 -8.88178e-016 -4.4182 9.239 2.10101e-005 3.71023e-006 -1.30219e-006 9.4119 3.9773 -0.7758 109.408 -29.3022 92.5738 0.7532 -40.9383 -1.42109e-014 -177.187 33.7219 -176.44 0 -40.1986 1.42109e-014 6.4502 10.7317 4.36468 0 -4.4182 9.239 9.5474e-007 -1.8511e-006 1.4152e-006 
-0.000203961 8.21091 70.8061 -0.00886773 -71.0095 179.991 0 8.7983 -4.7612 0.0355483 -0.731003 0.0429563 0 8.0291 0.4195 0.0716536 -1.46201 0.0863767 -6.93889e-018 9.9351 -2.2114 0.0716535 -1.462 0.0863767 -1.38778e-017 22.3885 -0.4656 -3.98052e-006 -14.2326 -3.75415e-006 -0.0001 12.643 3.4389 -0.0588641 -19.9747 -0.0212564 2.2603 21.606 7.4023 29.6011 16.4909 -29.7504 13.5163 -1.1332 -5.0146 104.953 -2.65852 114.448 -0.0995 -28.05 -0.2431 -71.4972 -76.8304 -30.3574 0.0679 -23.3996 -0.1402 -14.3742 -24.6388 -14.94 0.7932 -9.069 2.5189 -1.07771e-005 5.73035e-006 6.58549e-008 -0.8272 -3.3923 0.5977 1.62308e-005 -9.01068e-006 5.33417e-006 -0.5649 -2.3158 0.4082 -6.14662e-006 1.12289e-006 -3.97842e-006 0.9159 -9.2044 0.2193 -1.07771e-005 5.73035e-006 6.58549e-008 0.0117 -4.1944 -0.0248 -0.0128233 0.00232548 8.31691e-005 0.0071 -2.3249 -0.0142 4.77083e-015 2.17215e-008 -6.36111e-015 0.6113 -8.7231 -2.0637 -1.07771e-005 5.73035e-006 6.58549e-008 -0.1927 -3.8059 -0.2383 -0.016031 0.00299385 0.000862039 -0.1091 -2.1688 -0.1362 -1.10389e-006 1.43787e-006 -3.30063e-006 -0.6151 -8.0947 -3.5641 -1.07771e-005 5.73035e-006 6.58549e-008 -0.4882 -2.341 -0.6462 -0.0126353 0.00313092 0.00283766 -0.3575 -1.7167 -0.4742 -1.79678e-006 2.02023e-006 -1.87915e-006 -1.42 -1.8761 1.4223 -1.07771e-005 5.73035e-006 6.58549e-008 -1.1471 -3.4929 2.6334 1.62308e-005 -9.01068e-006 5.33417e-006 -0.823 -2.3 1.6571 -6.14662e-006 1.12289e-006 -3.97842e-006 -2.2603 21.606 7.4023 -30.5195 16.4003 24.5177 -13.5187 -1.1334 -5.0155 -102.7 -7.5271 -115.815 0.0994 -28.0499 -0.2431 70.7057 -76.7464 28.9813 -0.0679 -23.3996 -0.1402 14.0421 -24.9061 14.6603 -0.7932 -9.0691 2.5189 -3.18055e-015 -3.18055e-015 9.54166e-015 0.8272 -3.3923 0.5977 1.11319e-014 9.54166e-015 3.18055e-015 0.565 -2.3158 0.4082 -6.36111e-015 3.18055e-015 -0 -0.916 -9.2044 0.2193 -3.18055e-015 -3.18055e-015 9.54166e-015 -0.0117 -4.1944 -0.0248 0.0129341 0.00231398 -8.56783e-005 -0.0071 -2.3249 -0.0142 4.63491e-006 3.06975e-007 6.92291e-006 -0.6113 -8.7231 -2.0637 -3.18055e-015 -3.18055e-015 9.54166e-015 0.1927 -3.8059 -0.2383 0.0163085 0.00302668 -0.000868981 0.1091 -2.1688 -0.1362 -3.18055e-015 0 -3.18055e-015 0.6151 -8.0947 -3.564 -3.18055e-015 -3.18055e-015 9.54166e-015 0.4882 -2.341 -0.6462 0.0145973 0.00367654 -0.00326279 0.3574 -1.7166 -0.4742 -9.54166e-015 -3.18055e-015 3.18055e-015 1.4199 -1.8761 1.4221 -3.18055e-015 -3.18055e-015 9.54166e-015 1.1472 -3.4929 2.6336 1.11319e-014 9.54166e-015 3.18055e-015 0.8229 -2.3 1.6571 -6.36111e-015 3.18055e-015 -0 -9.412 3.9771 -0.7758 -100.642 -32.524 -86.3785 -0.7531 -40.938 -7.10543e-015 176.917 43.3357 177.812 0 -40.1986 0 -6.66166 10.2001 -3.36753 -8.88178e-016 -4.4182 9.239 -2.67814e-006 -1.81682e-006 -2.11818e-006 9.4119 3.9773 -0.7758 100.641 -32.552 86.3736 0.7532 -40.9383 0 -176.878 43.3362 -177.857 0 -40.1986 -7.10543e-015 6.64088 10.2056 3.38306 -8.88178e-016 -4.4182 9.239 1.37722e-005 1.26109e-005 -8.16573e-007 
